<svg width="193" height="188" viewBox="0 0 193 188" fill="none" xmlns="http://www.w3.org/2000/svg">
<g clip-path="url(#clip0_1301_46649)">
<path d="M137.154 156.5H50.8324C49.4767 156.367 48.2087 155.759 47.2456 154.782C46.2825 153.805 45.6841 152.518 45.5527 151.143V37.4107C45.6726 36.0171 46.276 34.712 47.2555 33.7276C48.2295 32.7395 49.5136 32.1283 50.8852 32H114.901L142.619 59.8036V151.089C142.636 151.774 142.515 152.456 142.263 153.091C142.011 153.727 141.633 154.304 141.154 154.786C140.071 155.832 138.649 156.442 137.154 156.5Z" fill="#DDDFE4"/>
<path d="M102.969 50.9509H57.6169C57.3676 50.9348 57.1243 50.8667 56.902 50.7511C56.6797 50.6355 56.4831 50.4747 56.3247 50.2787C56.1662 50.0828 56.0492 49.8559 55.9808 49.6121C55.9125 49.3683 55.8943 49.1128 55.9274 48.8616C55.9274 47.6295 56.495 47.0134 57.6169 47.0134H102.969C104.104 47.0134 104.672 47.6295 104.672 48.8616C104.705 49.1139 104.686 49.3704 104.617 49.615C104.548 49.8597 104.43 50.0872 104.27 50.2834C104.11 50.4795 103.912 50.6401 103.688 50.755C103.464 50.8698 103.219 50.9365 102.969 50.9509ZM95.9338 64.2366C96.4484 64.2366 96.9419 64.0292 97.3058 63.66C97.6696 63.2908 97.8741 62.7899 97.8741 62.2678C97.8741 61.7456 97.6696 61.2449 97.3058 60.8757C96.9419 60.5065 96.4484 60.2991 95.9338 60.2991H57.6565C57.1809 60.3555 56.7423 60.5871 56.4239 60.9501C56.1056 61.313 55.9298 61.7819 55.9298 62.2678C55.9298 62.7537 56.1056 63.2226 56.4239 63.5856C56.7423 63.9485 57.1809 64.1802 57.6565 64.2366H95.9338ZM126.001 77.7633C126.269 77.7858 126.538 77.7517 126.791 77.6633C127.045 77.5749 127.278 77.434 127.475 77.2497C127.673 77.0653 127.83 76.8413 127.938 76.592C128.046 76.3427 128.101 76.0735 128.101 75.8013C128.101 75.5291 128.046 75.2598 127.938 75.0105C127.83 74.7613 127.673 74.5374 127.475 74.353C127.278 74.1686 127.045 74.0277 126.791 73.9393C126.538 73.8509 126.269 73.8168 126.001 73.8392H57.6169C57.1516 73.907 56.726 74.1427 56.4181 74.5031C56.1103 74.8635 55.9409 75.3244 55.9409 75.8013C55.9409 76.2783 56.1103 76.7392 56.4181 77.0996C56.726 77.46 57.1516 77.6956 57.6169 77.7633H126.001ZM121.646 91.0624C122.763 91.0624 123.41 90.4062 123.586 89.0937C123.549 88.5839 123.333 88.1045 122.977 87.743C122.621 87.3815 122.148 87.1622 121.646 87.1249H57.6169C57.3676 87.1411 57.1243 87.2091 56.902 87.3247C56.6797 87.4403 56.4831 87.6012 56.3247 87.7971C56.1662 87.9931 56.0492 88.2199 55.9808 88.4637C55.9125 88.7075 55.8943 88.9631 55.9274 89.2143C55.9274 90.4464 56.495 91.0624 57.6169 91.0624H121.646ZM95.9338 104.589C96.4484 104.589 96.9419 104.382 97.3058 104.013C97.6696 103.643 97.8741 103.143 97.8741 102.62C97.8741 102.098 97.6696 101.598 97.3058 101.228C96.9419 100.859 96.4484 100.652 95.9338 100.652H57.6565C57.1809 100.708 56.7423 100.94 56.4239 101.303C56.1056 101.666 55.9298 102.135 55.9298 102.62C55.9298 103.106 56.1056 103.575 56.4239 103.938C56.7423 104.301 57.1809 104.533 57.6565 104.589H95.9338ZM126.001 117.875C127.136 117.875 127.783 117.219 127.942 115.906C127.908 115.395 127.692 114.914 127.335 114.552C126.979 114.19 126.505 113.972 126.001 113.937H57.6169C57.3676 113.954 57.1243 114.022 56.902 114.137C56.6797 114.253 56.4831 114.414 56.3247 114.61C56.1662 114.806 56.0492 115.032 55.9808 115.276C55.9125 115.52 55.8943 115.776 55.9274 116.027C55.9274 117.259 56.495 117.875 57.6169 117.875H126.001ZM126.001 131.415C126.504 131.378 126.976 131.159 127.332 130.797C127.689 130.436 127.905 129.956 127.942 129.446C127.91 128.935 127.696 128.452 127.339 128.089C126.981 127.727 126.506 127.509 126.001 127.478H57.6169C57.1413 127.534 56.7026 127.766 56.3843 128.129C56.066 128.492 55.8901 128.961 55.8901 129.446C55.8901 129.932 56.066 130.401 56.3843 130.764C56.7026 131.127 57.1413 131.359 57.6169 131.415H126.001ZM126.001 144.701C127.136 144.701 127.783 144.045 127.942 142.732C127.934 142.487 127.876 142.246 127.773 142.024C127.669 141.802 127.522 141.604 127.34 141.442C127.159 141.28 126.946 141.157 126.715 141.082C126.485 141.007 126.242 140.981 126.001 141.004H57.6169C56.495 141.004 55.9274 141.621 55.9274 142.853C55.9274 144.085 56.495 144.701 57.6169 144.701H126.001Z" fill="#989DAE"/>
<path d="M114.848 32L142.236 59.8036H120.655C119.129 59.8435 117.65 59.2708 116.537 58.2098C115.966 57.6566 115.518 56.9853 115.224 56.2413C114.931 55.4973 114.798 54.6979 114.835 53.8973L114.848 32Z" fill="#BABEC9"/>
</g>
<path d="M116.149 97.7961V132.862C116.149 135.479 118.025 137.66 120.276 137.66H169.724C171.975 137.66 173.851 135.479 173.851 132.862V97.7961H116.149Z" fill="#FFBC1F"/>
<path d="M173.851 92.948C173.851 90.3035 171.973 88.0997 169.719 88.0997H120.281C118.027 88.0997 116.149 90.3035 116.149 92.948V97.7963H173.851V92.948Z" fill="#CC8F00"/>
<path d="M128.72 89.6969C132.402 89.6969 135.383 90.9201 135.383 92.4929C135.383 94.0657 132.402 95.2889 128.72 95.2889C125.038 95.2889 122.057 94.0657 122.057 92.4929C122.057 91.0075 125.038 89.6969 128.72 89.6969Z" fill="#1B1D22"/>
<path d="M161.277 89.6969C164.959 89.6969 167.94 90.9201 167.94 92.4929C167.94 94.0657 164.959 95.2889 161.277 95.2889C157.595 95.2889 154.614 94.0657 154.614 92.4929C154.614 91.0075 157.595 89.6969 161.277 89.6969Z" fill="#1B1D22"/>
<path d="M145.033 72.2979C133.907 72.2979 124.804 81.3884 124.804 92.5663C124.804 93.2397 126.237 93.8591 128.125 93.8591V92.6386C128.799 83.2115 136.065 75.6647 145.033 75.6647C154.002 75.6647 161.268 83.1391 161.875 92.6336V93.8591C163.763 93.8591 165.195 93.307 165.195 92.6336C165.263 81.3884 156.16 72.2979 145.033 72.2979Z" fill="#DDDFE4"/>
<path d="M161.95 92.6201C161.95 82.875 153.878 75.53 144.933 75.53C135.987 75.53 127.717 82.875 128.125 93.8591C130.008 93.8591 131.682 93.3009 131.682 92.6201C131.682 86.4241 136.794 79.0706 145 79.0706C153.206 79.0706 158.318 86.4241 158.318 92.6201C158.318 93.3009 159.999 93.8591 161.95 93.8591V92.6201Z" fill="#BABEC9"/>
<path d="M150.127 129.278L148.023 115.56C149.251 114.599 150.127 113.114 150.127 111.453C150.127 108.657 147.848 106.298 145.043 106.298C142.237 106.298 139.958 108.57 139.958 111.453C139.958 113.114 140.747 114.686 142.062 115.56L139.958 129.278H150.127Z" fill="#1B1D22"/>
<defs>
<clipPath id="clip0_1301_46649">
<rect width="97" height="124.5" fill="white" transform="translate(45.5 32)"/>
</clipPath>
</defs>
</svg>
